<?xml version="1.0" standalone="no"?>
<!DOCTYPE svg PUBLIC "-//W3C//DTD SVG 20010904//EN"
 "http://www.w3.org/TR/2001/REC-SVG-20010904/DTD/svg10.dtd">
<svg version="1.0" xmlns="http://www.w3.org/2000/svg"
 width="700.000000pt" height="700.000000pt" viewBox="0 0 700.000000 700.000000"
 preserveAspectRatio="xMidYMid meet">
<metadata>
Created by potrace 1.14, written by Peter Selinger 2001-2017
</metadata>
<g transform="translate(0.000000,700.000000) scale(0.100000,-0.100000)"
fill="#000000" stroke="none">
<path d="M3328 6996 c-1 -2 -34 -6 -73 -10 -38 -3 -81 -8 -95 -11 -14 -3 -45
-8 -70 -11 -25 -4 -97 -19 -160 -36 -786 -200 -1406 -784 -1654 -1557 -31 -95
-72 -270 -81 -346 -4 -27 -8 -61 -11 -75 -2 -14 -7 -63 -10 -110 -3 -47 -7
-100 -8 -118 -2 -18 2 -39 9 -45 8 -9 152 -12 578 -11 312 0 570 3 574 7 3 4
7 27 8 51 10 205 73 397 193 581 105 162 278 317 450 404 153 77 349 123 525
122 127 -1 168 -6 285 -37 384 -99 679 -371 815 -750 14 -38 28 -86 32 -105
56 -300 34 -509 -77 -720 -99 -189 -224 -316 -608 -615 -379 -296 -503 -411
-650 -604 -190 -250 -321 -570 -356 -868 -3 -31 -8 -59 -9 -62 -4 -6 -18 -227
-18 -265 1 -60 -54 -55 586 -55 l582 0 2 81 c3 89 33 249 65 343 91 272 301
539 688 876 86 75 115 100 265 236 296 267 454 460 569 691 112 227 157 424
157 698 0 139 -2 169 -22 316 -9 74 -13 100 -24 149 -3 14 -7 34 -9 45 -18 90
-81 282 -133 403 -61 143 -202 392 -250 440 -7 7 -13 17 -13 21 0 4 -8 16 -17
27 -10 10 -36 42 -57 69 -57 72 -269 282 -351 346 -327 258 -742 437 -1125
485 -30 4 -66 9 -80 11 -29 5 -416 13 -422 9z"/>
<path d="M2918 1156 c-2 -6 -3 -267 -3 -581 l1 -570 584 0 584 0 1 578 c0 317
-2 578 -5 579 -3 0 -265 2 -582 3 -401 1 -578 -2 -580 -9z"/>
</g>
</svg>
